GIL01_slow3_ik
nRows=3
nColumns=375

# SIMM Motion File Header:
name GIL01_slow3_ik
datacolumns 375
datarows 3
otherdata 1
range 0.20833000 0.22500000
endheader
time	pelvis_tx	pelvis_ty	pelvis_tz	pelvis_tilt	pelvis_list	pelvis_rotation	hip_flexion_r	hip_adduction_r	hip_rotation_r	knee_angle_r	ankle_angle_r	hip_flexion_l	hip_adduction_l	hip_rotation_l	knee_angle_l	ankle_angle_l	lumbar_extension	lumbar_bending	lumbar_rotation	subtalar_angle_r	mtp_angle_r	subtalar_angle_l	mtp_angle_l	asis_r_px	asis_r_py	asis_r_pz	asis_l_px	asis_l_py	asis_l_pz	midasis_px	midasis_py	midasis_pz	psis_r_px	psis_r_py	psis_r_pz	psis_l_px	psis_l_py	psis_l_pz	hip_r_px	hip_r_py	hip_r_pz	hip_l_px	hip_l_py	hip_l_pz	midhip_px	midhip_py	midhip_pz	epicondLat_r_px	epicondLat_r_py	epicondLat_r_pz	epicondMed_r_px	epicondMed_r_py	epicondMed_r_pz	thighwand_r_px	thighwand_r_py	thighwand_r_pz	upperleg1_r_px	upperleg1_r_py	upperleg1_r_pz	upperleg2_r_px	upperleg2_r_py	upperleg2_r_pz	malleolusLat_r_px	malleolusLat_r_py	malleolusLat_r_pz	malleolusMedv_r_px	malleolusMedv_r_py	malleolusMedv_r_pz	shankwand_r_px	shankwand_r_py	shankwand_r_pz	lowerleg1_r_px	lowerleg1_r_py	lowerleg1_r_pz	knee_r_px	knee_r_py	knee_r_pz	ankle_r_px	ankle_r_py	ankle_r_pz	toe_r_px	toe_r_py	toe_r_pz	epicondLat_l_px	epicondLat_l_py	epicondLat_l_pz	epicondMed_l_px	epicondMed_l_py	epicondMed_l_pz	thighwand_l_px	thighwand_l_py	thighwand_l_pz	upperleg1_l_px	upperleg1_l_py	upperleg1_l_pz	upperleg2_l_px	upperleg2_l_py	upperleg2_l_pz	malleolusLat_l_px	malleolusLat_l_py	malleolusLat_l_pz	malleolusMedv_l_px	malleolusMedv_l_py	malleolusMedv_l_pz	shankwand_l_px	shankwand_l_py	shankwand_l_pz	lowerleg1_l_px	lowerleg1_l_py	lowerleg1_l_pz	knee_l_px	knee_l_py	knee_l_pz	ankle_l_px	ankle_l_py	ankle_l_pz	toe_l_px	toe_l_py	toe_l_pz	subclavicle_r_px	subclavicle_r_py	subclavicle_r_pz	subclavicle_l_px	subclavicle_l_py	subclavicle_l_pz	neck_px	neck_py	neck_pz	sternalnotch_px	sternalnotch_py	sternalnotch_pz	xyphoidprocess_px	xyphoidprocess_py	xyphoidprocess_pz	midhip_tx	midhip_ty	midhip_tz	hip_r_tx	hip_r_ty	hip_r_tz	hip_l_tx	hip_l_ty	hip_l_tz	knee_r_tx	knee_r_ty	knee_r_tz	knee_l_tx	knee_l_ty	knee_l_tz	ankle_r_tx	ankle_r_ty	ankle_r_tz	ankle_l_tx	ankle_l_ty	ankle_l_tz	midasis_tx	midasis_ty	midasis_tz	asis_r_tx	asis_r_ty	asis_r_tz	asis_l_tx	asis_l_ty	asis_l_tz	psis_r_tx	psis_r_ty	psis_r_tz	psis_l_tx	psis_l_ty	psis_l_tz	epicondLat_r_tx	epicondLat_r_ty	epicondLat_r_tz	epicondLat_l_tx	epicondLat_l_ty	epicondLat_l_tz	epicondMed_r_tx	epicondMed_r_ty	epicondMed_r_tz	epicondMed_l_tx	epicondMed_l_ty	epicondMed_l_tz	malleolusLat_r_tx	malleolusLat_r_ty	malleolusLat_r_tz	malleolusLat_l_tx	malleolusLat_l_ty	malleolusLat_l_tz	malleolusMedv_r_tx	malleolusMedv_r_ty	malleolusMedv_r_tz	malleolusMedv_l_tx	malleolusMedv_l_ty	malleolusMedv_l_tz	neck_tx	neck_ty	neck_tz	subclavicle_r_tx	subclavicle_r_ty	subclavicle_r_tz	subclavicle_l_tx	subclavicle_l_ty	subclavicle_l_tz	sternalnotch_tx	sternalnotch_ty	sternalnotch_tz	xyphoidprocess_tx	xyphoidprocess_ty	xyphoidprocess_tz	thighwand_r_tx	thighwand_r_ty	thighwand_r_tz	thighwand_l_tx	thighwand_l_ty	thighwand_l_tz	upperleg1_r_tx	upperleg1_r_ty	upperleg1_r_tz	upperleg1_l_tx	upperleg1_l_ty	upperleg1_l_tz	upperleg2_r_tx	upperleg2_r_ty	upperleg2_r_tz	upperleg2_l_tx	upperleg2_l_ty	upperleg2_l_tz	shankwand_r_tx	shankwand_r_ty	shankwand_r_tz	shankwand_l_tx	shankwand_l_ty	shankwand_l_tz	lowerleg1_r_tx	lowerleg1_r_ty	lowerleg1_r_tz	lowerleg1_l_tx	lowerleg1_l_ty	lowerleg1_l_tz	toe_r_tx	toe_r_ty	toe_r_tz	toe_l_tx	toe_l_ty	toe_l_tz	ground_force_vx	ground_force_vy	ground_force_vz	ground_force_px	ground_force_py	ground_force_pz	ground_force_vx	ground_force_vy	ground_force_vz	ground_force_px	ground_force_py	ground_force_pz	ground_torque_x	ground_torque_y	ground_torque_z	ground_torque_x	ground_torque_y	ground_torque_z	ground_marker_px	ground_marker_py	ground_marker_pz	ground_marker_px	ground_marker_py	ground_marker_pz	ground_marker_px	ground_marker_py	ground_marker_pz	ground_marker_px	ground_marker_py	ground_marker_pz	ground_marker_px	ground_marker_py	ground_marker_pz	ground_marker_px	ground_marker_py	ground_marker_pz	ground_marker_px	ground_marker_py	ground_marker_pz	ground_marker_px	ground_marker_py	ground_marker_pz	ground_marker_px	ground_marker_py	ground_marker_pz	ground_marker_px	ground_marker_py	ground_marker_pz	ground_marker_px	ground_marker_py	ground_marker_pz	ground_marker_px	ground_marker_py	ground_marker_pz	ground_marker_px	ground_marker_py	ground_marker_pz	ground_marker_px	ground_marker_py	ground_marker_pz	ground_marker_px	ground_marker_py	ground_marker_pz	ground_marker_px	ground_marker_py	ground_marker_pz	ground_marker_px	ground_marker_py	ground_marker_pz	ground_marker_px	ground_marker_py	ground_marker_pz	ground_marker_px	ground_marker_py	ground_marker_pz	ground_marker_px	ground_marker_py	ground_marker_pz	ground_marker_px	ground_marker_py	ground_marker_pz	ground_marker_px	ground_marker_py	ground_marker_pz	ground_marker_px	ground_marker_py	ground_marker_pz	ground_marker_px	ground_marker_py	ground_marker_pz	ground_marker_px	ground_marker_py	ground_marker_pz	ground_marker_px	ground_marker_py	ground_marker_pz	ground_marker_px	ground_marker_py	ground_marker_pz	ground_marker_px	ground_marker_py	ground_marker_pz	ground_marker_px	ground_marker_py	ground_marker_pz	ground_marker_px	ground_marker_py	ground_marker_pz	ground_marker_px	ground_marker_py	ground_marker_pz	ground_marker_px	ground_marker_py	ground_marker_pz	ground_marker_px	ground_marker_py	ground_marker_pz	ground_marker_px	ground_marker_py	ground_marker_pz	ground_marker_px	ground_marker_py	ground_marker_pz	ground_marker_px	ground_marker_py	ground_marker_pz	ground_marker_px	ground_marker_py	ground_marker_pz
      0.20833000	     -0.92853703	      0.79871041	      0.26392945	      1.85575227	      5.72869645	     -3.02088905	    -13.10968283	     -9.12531557	    -16.46043927	    -27.47022369	     -7.81017234	      1.36246117	      7.14766142	     -7.83956549	     10.00000028	     -7.44972423	      4.09047025	     -6.81944592	     12.60407311	      0.00000000	      0.00000000	      0.00000000	      0.00000000	     -0.91413818	      0.79008304	      0.36751602	     -0.88595169	      0.80744811	      0.16058456	     -0.91709652	      0.79902076	      0.26453041	     -1.06050668	      0.83601845	      0.27907742	     -1.05689367	      0.83989508	      0.22418616	     -0.98794784	      0.73640516	      0.32341125	     -0.98118842	      0.75025822	      0.18757575	     -0.98456813	      0.74333169	      0.25549350	     -1.11067271	      0.40603193	      0.38700970	     -1.07304025	      0.39548842	      0.28717134	     -0.99502868	      0.50121240	      0.46427068	     -1.03573141	      0.57005134	      0.40870672	     -1.05769968	      0.48563530	      0.39541425	     -1.29413524	      0.13231852	      0.34730491	     -1.26613252	      0.11906414	      0.29567335	     -1.27179993	      0.24543096	      0.41897893	     -1.26241205	      0.20333210	      0.34845597	     -1.05523011	      0.40647443	      0.34031401	     -1.26802333	      0.13135404	      0.30576868	     -1.24335463	      0.03349720	      0.36224929	     -1.00283115	      0.41215438	      0.14537226	     -1.01178335	      0.36547174	      0.27747954	     -0.83243781	      0.52930351	      0.16349925	     -0.90242497	      0.59183469	      0.13873751	     -0.95392544	      0.46807110	      0.18434979	     -0.90692186	      0.06525714	      0.15526290	     -0.88624914	      0.06790942	      0.20721439	     -0.94364797	      0.18617162	      0.08297263	     -0.93472993	      0.14569103	      0.15611381	     -0.96904602	      0.41629047	      0.19657735	     -0.89163276	      0.07547190	      0.20050859	     -0.79129673	      0.04790382	      0.15200918	     -0.98691190	      1.16120024	      0.29514689	     -0.99909248	      1.16874879	      0.22131011	     -1.10576367	      1.19391248	      0.26577113	     -1.00669545	      1.16066090	      0.25862763	     -0.96073555	      1.08788167	      0.24603063	     -0.97224000	      0.74345600	      0.25374600	     -0.99585500	      0.73036800	      0.31339800	     -0.98668200	      0.74258800	      0.18398100	     -1.06434700	      0.39566400	      0.33100500	     -0.97344200	      0.42148200	      0.19381000	     -1.27627800	      0.12732900	      0.30901400	     -0.88363900	      0.07020200	      0.20617800	     -0.92575900	      0.80906600	      0.26018700	     -0.93296400	      0.79946700	      0.36183700	     -0.91855400	      0.81866400	      0.15853800	     -1.08465800	      0.83739400	      0.28590400	     -1.08430200	      0.83842200	      0.23128300	     -1.08172700	      0.40194600	      0.38280800	     -0.97676600	      0.41968100	      0.13944200	     -1.03282000	      0.38872400	      0.29208300	     -0.96557300	      0.39852100	      0.23475400	     -1.29321200	      0.13810700	      0.34069000	     -0.89375600	      0.06637000	      0.17079500	     -1.26485200	      0.12581400	      0.28733300	     -0.87624300	      0.07829700	      0.23379200	     -1.10494600	      1.20142200	      0.26598800	     -0.98732100	      1.15529800	      0.29403200	     -0.99585400	      1.16051900	      0.21929800	     -1.00612000	      1.15495400	      0.25671100	     -0.96851100	      1.07690900	      0.24939000	     -0.97517000	      0.51603500	      0.46337700	     -0.82828100	      0.55038700	      0.17370100	     -1.02495500	      0.57256700	      0.40444000	     -0.90073200	      0.60812600	      0.14316800	     -1.03314900	      0.48585200	      0.39550000	     -0.90651600	      0.52263200	      0.14667100	     -1.25748300	      0.24722400	      0.41572100	     -0.91648600	      0.18940400	      0.08949400	     -1.25409900	      0.20600000	      0.34409500	     -0.91705800	      0.15147600	      0.16435500	     -1.24128100	      0.04641100	      0.35296500	     -0.77822300	      0.05090700	      0.18919200	      0.00000000	      0.00000000	      0.00000000	     -0.54976059	      0.00000000	      0.22905600	    -45.73083526	    371.90030451	     19.12163409	     -0.89079077	      0.00000000	      0.21203596	      0.00000000	      0.00000000	      0.00000000	      0.00000000	      0.26366113	      0.00000000	     -0.97224033	      0.74345642	      0.25374556	     -0.99585527	      0.73036760	      0.31339785	     -0.98668176	      0.74258798	      0.18398133	     -1.06434727	      0.39566436	      0.33100542	     -0.97344160	      0.42148244	      0.19381033	     -1.27627838	      0.12732878	      0.30901402	     -0.88363940	      0.07020200	      0.20617802	     -0.92575908	      0.80906558	      0.26018739	     -0.93296444	      0.79946715	      0.36183694	     -0.91855377	      0.81866407	      0.15853783	     -1.08465803	      0.83739412	      0.28590429	     -1.08430207	      0.83842224	      0.23128320	     -1.08172667	      0.40194595	      0.38280791	     -0.97676641	      0.41968116	      0.13944168	     -1.03281951	      0.38872427	      0.29208288	     -0.96557295	      0.39852130	      0.23475419	     -1.29321158	      0.13810669	      0.34068972	     -0.89375603	      0.06637001	      0.17079484	     -1.26485181	      0.12581392	      0.28733322	     -0.87624305	      0.07829709	      0.23379177	     -1.10494590	      1.20142162	      0.26598784	     -0.98732108	      1.15529788	      0.29403210	     -0.99585450	      1.16051936	      0.21929815	     -1.00612044	      1.15495396	      0.25671062	     -0.96851093	      1.07690907	      0.24938981	     -0.97517002	      0.51603508	      0.46337718	     -0.82828069	      0.55038655	      0.17370084	     -1.02495456	      0.57256651	      0.40444040	     -0.90073246	      0.60812581	      0.14316754	     -1.03314888	      0.48585236	      0.39549986	     -0.90651602	      0.52263230	      0.14667113	     -1.25748336	      0.24722435	      0.41572118	     -0.91648632	      0.18940407	      0.08949380	     -1.25409877	      0.20599991	      0.34409472	     -0.91705811	      0.15147637	      0.16435522	     -1.24128067	      0.04641071	      0.35296482	     -0.77822292	      0.05090684	      0.18919230
      0.21667000	     -0.92291369	      0.79937797	      0.26204238	      1.97165489	      5.71234552	     -2.95975526	    -12.51094664	     -9.49038844	    -16.47891132	    -28.91586864	     -8.89836869	      0.71771761	      7.28873260	     -8.05808501	     10.00000028	     -7.21076344	      3.99927190	     -6.79031077	     12.45533163	      0.00000000	      0.00000000	      0.00000000	      0.00000000	     -0.90838762	      0.79081460	      0.36561649	     -0.88045571	      0.80817305	      0.15864996	     -0.91147324	      0.79971287	      0.26263120	     -1.05494648	      0.83640982	      0.27731723	     -1.05139944	      0.84027648	      0.22242096	     -0.98212913	      0.73696551	      0.32160654	     -0.97554202	      0.75078922	      0.18575959	     -0.97883557	      0.74387737	      0.25368306	     -1.10070913	      0.40556549	      0.38767801	     -1.06303557	      0.39477397	      0.28788166	     -0.98618282	      0.50271614	      0.46414760	     -1.02778067	      0.57064844	      0.40813254	     -1.04871609	      0.48587478	      0.39546379	     -1.28725152	      0.13477403	      0.34745690	     -1.25930756	      0.12121064	      0.29587378	     -1.26374033	      0.24759910	      0.41920775	     -1.25470903	      0.20541454	      0.34868944	     -1.04516995	      0.40614242	      0.34099870	     -1.26107464	      0.13351874	      0.30596936	     -1.23933782	      0.03448480	      0.36159630	     -1.00056990	      0.41280203	      0.14450416	     -1.00917580	      0.36651795	      0.27677458	     -0.82899283	      0.52840509	      0.16134570	     -0.89854148	      0.59152516	      0.13684391	     -0.95091841	      0.46835404	      0.18305799	     -0.90782730	      0.06505280	      0.15467259	     -0.88682488	      0.06763599	      0.20649516	     -0.94385537	      0.18613167	      0.08230624	     -0.93488225	      0.14574346	      0.15549175	     -0.96644650	      0.41674533	      0.19549972	     -0.89217754	      0.07523227	      0.19980278	     -0.79232092	      0.04704967	      0.15067124	     -0.98165051	      1.16169024	      0.29351581	     -0.99373840	      1.16926903	      0.21966690	     -1.10048419	      1.19434200	      0.26399993	     -1.00138547	      1.16115711	      0.25697019	     -0.95536266	      1.08841362	      0.24439651	     -0.96685100	      0.74385100	      0.25160700	     -0.99031500	      0.73063100	      0.31194300	     -0.98131300	      0.74284200	      0.18251400	     -1.05477600	      0.39541400	      0.33210100	     -0.97129700	      0.42198600	      0.19289600	     -1.26912200	      0.13010800	      0.30897300	     -0.88347000	      0.06997200	      0.20551200	     -0.92041700	      0.80944000	      0.25863600	     -0.92748400	      0.79985500	      0.36024100	     -0.91335000	      0.81902600	      0.15703100	     -1.07943200	      0.83734800	      0.28447600	     -1.07914300	      0.83871100	      0.22985300	     -1.07217400	      0.40187300	      0.38387600	     -0.97496700	      0.42011300	      0.13855200	     -1.02322000	      0.38772700	      0.29357400	     -0.96468000	      0.39962100	      0.23387500	     -1.28607300	      0.14104700	      0.34058400	     -0.89395700	      0.06609200	      0.17024300	     -1.25766700	      0.12783200	      0.28751200	     -0.87619000	      0.07834200	      0.23314900	     -1.09943700	      1.20170100	      0.26414700	     -0.98220400	      1.15537400	      0.29251400	     -0.99044000	      1.16077200	      0.21768400	     -1.00086000	      1.15514600	      0.25508100	     -0.96336800	      1.07704500	      0.24774700	     -0.96687800	      0.51726200	      0.46377200	     -0.82464200	      0.54991600	      0.17160400	     -1.01732600	      0.57262100	      0.40422000	     -0.89689900	      0.60820600	      0.14164800	     -1.02459100	      0.48585300	      0.39609200	     -0.90425000	      0.52245800	      0.14522100	     -1.24960000	      0.24944500	      0.41579400	     -0.91678900	      0.18923200	      0.08876000	     -1.24600300	      0.20801200	      0.34421500	     -0.91700200	      0.15155700	      0.16380100	     -1.23702000	      0.04787800	      0.35321100	     -0.77822200	      0.05055400	      0.18875300	      0.00000000	      0.00000000	      0.00000000	     -0.54764761	      0.00000000	      0.22901733	    -44.28724987	    383.58630795	     17.98899213	     -0.89037518	      0.00000000	      0.21151323	      0.00000000	      0.00000000	      0.00000000	      0.00000000	      0.35219678	      0.00000000	     -0.96685088	      0.74385142	      0.25160685	     -0.99031472	      0.73063099	      0.31194311	     -0.98131257	      0.74284178	      0.18251364	     -1.05477619	      0.39541399	      0.33210099	     -0.97129744	      0.42198557	      0.19289571	     -1.26912224	      0.13010751	      0.30897292	     -0.88347048	      0.06997211	      0.20551248	     -0.92041731	      0.80944037	      0.25863600	     -0.92748421	      0.79985464	      0.36024052	     -0.91335046	      0.81902605	      0.15703149	     -1.07943189	      0.83734822	      0.28447583	     -1.07914281	      0.83871138	      0.22985294	     -1.07217360	      0.40187287	      0.38387564	     -0.97496682	      0.42011261	      0.13855164	     -1.02322042	      0.38772678	      0.29357380	     -0.96468049	      0.39962053	      0.23387522	     -1.28607309	      0.14104682	      0.34058380	     -0.89395732	      0.06609151	      0.17024258	     -1.25766730	      0.12783240	      0.28751221	     -0.87618971	      0.07834216	      0.23314920	     -1.09943748	      1.20170140	      0.26414719	     -0.98220384	      1.15537441	      0.29251367	     -0.99043971	      1.16077161	      0.21768382	     -1.00085998	      1.15514565	      0.25508067	     -0.96336830	      1.07704532	      0.24774691	     -0.96687847	      0.51726162	      0.46377173	     -0.82464188	      0.54991639	      0.17160422	     -1.01732552	      0.57262063	      0.40422007	     -0.89689934	      0.60820603	      0.14164808	     -1.02459121	      0.48585263	      0.39609212	     -0.90425003	      0.52245843	      0.14522086	     -1.24960041	      0.24944521	      0.41579446	     -0.91678858	      0.18923175	      0.08875991	     -1.24600255	      0.20801228	      0.34421512	     -0.91700166	      0.15155686	      0.16380149	     -1.23701978	      0.04787823	      0.35321105	     -0.77822185	      0.05055373	      0.18875271
      0.22500000	     -0.91727522	      0.80003250	      0.26029686	      2.05414321	      5.71414529	     -2.89658309	    -11.82907057	     -9.84213787	    -16.45800211	    -30.38045595	     -9.43280804	      0.08342752	      7.42411425	     -8.17349038	     10.00000028	     -6.89954166	      3.98224587	     -6.83039599	     12.27233078	      0.00000000	      0.00000000	      0.00000000	      0.00000000	     -0.90262224	      0.79149248	      0.36385503	     -0.87494442	      0.80889253	      0.15685785	     -0.90583466	      0.80038513	      0.26087312	     -1.04934839	      0.83685986	      0.27571638	     -1.04586759	      0.84073156	      0.22081623	     -0.97632847	      0.73752884	      0.31992637	     -0.96991189	      0.75136165	      0.18407218	     -0.97312018	      0.74444525	      0.25199928	     -1.09044277	      0.40503555	      0.38832786	     -1.05276157	      0.39408763	      0.28855143	     -0.97710650	      0.50418529	      0.46400044	     -1.01966985	      0.57119530	      0.40760110	     -1.03950266	      0.48607204	      0.39551586	     -1.27991545	      0.13713763	      0.34745313	     -1.25204417	      0.12331709	      0.29589895	     -1.25526677	      0.24962381	      0.41935415	     -1.24659477	      0.20741218	      0.34880694	     -1.03483457	      0.40581505	      0.34163934	     -1.25369038	      0.13563392	      0.30600431	     -1.23397544	      0.03590007	      0.36113185	     -0.99836358	      0.41355392	      0.14357298	     -1.00686552	      0.36760502	      0.27596693	     -0.82561308	      0.52753005	      0.15948212	     -0.89465194	      0.59127088	      0.13514619	     -0.94801995	      0.46869773	      0.18181399	     -0.90893178	      0.06494708	      0.15402922	     -0.88769052	      0.06742574	      0.20575947	     -0.94409260	      0.18623046	      0.08157883	     -0.93520500	      0.14589608	      0.15480444	     -0.96399240	      0.41726464	      0.19441937	     -0.89299753	      0.07506057	      0.19907462	     -0.79353045	      0.04638598	      0.14944017	     -0.97655374	      1.16225751	      0.29180507	     -0.98849480	      1.16979314	      0.21792786	     -1.09536649	      1.19474529	      0.26202511	     -0.99621050	      1.16168533	      0.25521790	     -0.95006762	      1.08899643	      0.24276918	     -0.96127900	      0.74460700	      0.24958900	     -0.98497900	      0.73083200	      0.31062700	     -0.97614300	      0.74307200	      0.18118900	     -1.04509900	      0.39512000	      0.33315300	     -0.96950100	      0.42244700	      0.19198400	     -1.26162000	      0.13280800	      0.30872800	     -0.88346700	      0.06974700	      0.20482100	     -0.91523500	      0.80973000	      0.25725000	     -0.92216700	      0.80012700	      0.35880000	     -0.90830200	      0.81933300	      0.15569900	     -1.07434800	      0.83726800	      0.28313300	     -1.07404800	      0.83905600	      0.22853500	     -1.06250000	      0.40170900	      0.38491000	     -0.97341800	      0.42053700	      0.13765800	     -1.01356200	      0.38666300	      0.29499300	     -0.96550900	      0.40074700	      0.23252900	     -1.27856100	      0.14385100	      0.34030800	     -0.89430800	      0.06582300	      0.16966300	     -1.25024100	      0.12984100	      0.28730900	     -0.87628300	      0.07842500	      0.23240500	     -1.09410500	      1.20193400	      0.26213500	     -0.97726700	      1.15537100	      0.29105800	     -0.98518800	      1.16099300	      0.21611000	     -0.99577100	      1.15528300	      0.25349700	     -0.95839900	      1.07713000	      0.24610900	     -0.95855400	      0.51840100	      0.46414100	     -0.82122900	      0.54933900	      0.16982900	     -1.00987300	      0.57254900	      0.40403000	     -0.89320600	      0.60820300	      0.14037500	     -1.01605600	      0.48566400	      0.39666300	     -0.90274800	      0.52196900	      0.14378000	     -1.24138100	      0.25136300	      0.41577700	     -0.91728100	      0.18909600	      0.08801300	     -1.23771800	      0.20987400	      0.34418100	     -0.91727600	      0.15163700	      0.16321300	     -1.23180700	      0.04985800	      0.35388600	     -0.77834600	      0.05040000	      0.18828400	      0.00000000	      0.00000000	      0.00000000	     -0.54538760	      0.00000000	      0.22901965	    -41.72867524	    394.61975579	     17.37544326	     -0.89004059	      0.00000000	      0.21093109	      0.00000000	      0.00000000	      0.00000000	      0.00000000	      0.43366919	      0.00000000	     -0.96127856	      0.74460685	      0.24958852	     -0.98497903	      0.73083234	      0.31062731	     -0.97614276	      0.74307245	      0.18118918	     -1.04509866	      0.39512011	      0.33315298	     -0.96950060	      0.42244709	      0.19198358	     -1.26162028	      0.13280798	      0.30872750	     -0.88346678	      0.06974718	      0.20482078	     -0.91523468	      0.80972970	      0.25724983	     -0.92216712	      0.80012673	      0.35880026	     -0.90830225	      0.81933260	      0.15569943	     -1.07434809	      0.83726823	      0.28313339	     -1.07404828	      0.83905554	      0.22853480	     -1.06249964	      0.40170911	      0.38491002	     -0.97341847	      0.42053697	      0.13765816	     -1.01356244	      0.38666266	      0.29499283	     -0.96550912	      0.40074661	      0.23252858	     -1.27856112	      0.14385098	      0.34030768	     -0.89430803	      0.06582303	      0.16966303	     -1.25024104	      0.12984113	      0.28730950	     -0.87628305	      0.07842463	      0.23240499	     -1.09410465	      1.20193434	      0.26213524	     -0.97726679	      1.15537083	      0.29105797	     -0.98518836	      1.16099334	      0.21611027	     -0.99577117	      1.15528286	      0.25349715	     -0.95839906	      1.07713032	      0.24610938	     -0.95855397	      0.51840121	      0.46414149	     -0.82122898	      0.54933906	      0.16982944	     -1.00987327	      0.57254887	      0.40403014	     -0.89320576	      0.60820323	      0.14037451	     -1.01605642	      0.48566359	      0.39666292	     -0.90274799	      0.52196854	      0.14378005	     -1.24138069	      0.25136334	      0.41577712	     -0.91728055	      0.18909556	      0.08801259	     -1.23771775	      0.20987429	      0.34418052	     -0.91727585	      0.15163653	      0.16321312	     -1.23180723	      0.04985792	      0.35388598	     -0.77834558	      0.05040016	      0.18828435
